<?xml version="1.0" standalone="no"?>
<!DOCTYPE svg PUBLIC "-//W3C//DTD SVG 20010904//EN"
 "http://www.w3.org/TR/2001/REC-SVG-20010904/DTD/svg10.dtd">
<svg version="1.0" xmlns="http://www.w3.org/2000/svg"
 width="640.000000pt" height="640.000000pt" viewBox="0 0 640.000000 640.000000"
 preserveAspectRatio="xMidYMid meet">
<metadata>
Created by potrace 1.14, written by Peter Selinger 2001-2017
</metadata>
<g transform="translate(0.000000,640.000000) scale(0.100000,-0.100000)"
fill="#000000" stroke="none">
<path d="M0 5486 c0 -909 0 -914 20 -909 11 3 20 0 20 -6 0 -6 6 -11 14 -11
17 0 29 27 16 35 -15 9 -12 45 4 45 15 0 29 27 21 40 -3 5 -1 11 5 15 5 3 10
16 10 29 0 13 7 38 16 56 12 23 15 47 11 84 -4 34 -2 59 7 75 10 19 11 29 3
43 -8 13 -8 26 0 50 7 18 14 75 17 127 3 52 10 99 15 104 6 6 11 31 12 57 l1
45 10 -34 c7 -27 12 -31 19 -20 5 8 6 27 3 42 -8 39 6 147 18 144 6 -1 13 4
15 11 3 6 -1 12 -7 12 -9 0 -9 4 -2 13 9 11 15 34 27 110 11 63 28 117 36 117
12 0 11 34 -1 46 -6 6 -6 15 0 24 8 12 10 10 10 -7 0 -13 5 -23 10 -23 6 0 10
19 9 43 -2 71 35 320 51 342 13 19 32 104 27 120 -4 9 1 19 13 25 13 7 19 19
17 40 l-2 30 -222 0 -223 0 0 -914z m40 -855 c0 -6 -4 -13 -10 -16 -5 -3 -10
1 -10 9 0 9 5 16 10 16 6 0 10 -4 10 -9z"/>
<path d="M3205 6375 c-47 -16 -93 -24 -140 -25 -38 0 -92 -6 -120 -14 -60 -16
-169 -69 -208 -102 -25 -21 -26 -24 -9 -24 11 0 22 6 25 13 3 6 5 1 4 -13 -1
-14 -8 -32 -17 -40 -42 -42 -54 -61 -42 -69 9 -5 -23 -44 -106 -127 -65 -65
-140 -150 -167 -188 -89 -127 -175 -357 -239 -644 -23 -101 -73 -424 -86 -557
-6 -60 -15 -146 -20 -191 -6 -44 -10 -106 -10 -137 0 -50 -3 -57 -17 -55 -15
2 -19 -7 -24 -52 -3 -33 -7 -43 -8 -25 -2 29 -3 29 -12 7 -5 -13 -6 -38 -3
-55 4 -23 2 -29 -6 -21 -7 7 -11 89 -12 235 -1 181 -3 215 -11 174 -6 -28 -11
-194 -11 -380 0 -181 -3 -318 -7 -305 -4 14 -7 -36 -8 -110 -2 -204 -15 -296
-56 -385 -33 -73 -34 -78 -18 -101 19 -29 30 -25 14 5 -10 17 -5 34 28 98 l39
78 -3 -70 c-2 -38 -7 -160 -10 -270 -8 -265 -20 -398 -49 -522 -14 -61 -19
-104 -13 -106 9 -3 -121 -257 -165 -321 -18 -27 -123 -134 -153 -156 -12 -9
-93 47 -107 75 -9 17 -6 16 18 -5 16 -14 33 -31 37 -38 4 -6 15 -12 24 -12 14
0 14 2 -3 15 -19 14 -18 14 4 15 20 0 22 5 22 54 0 95 13 142 102 369 27 70
17 -15 -16 -137 -9 -33 -15 -67 -13 -75 4 -13 5 -12 6 2 0 10 14 58 31 108 25
75 29 106 28 177 -1 76 36 308 89 552 7 32 -66 -64 -102 -134 -14 -28 -25 -43
-25 -34 0 15 32 81 85 173 17 28 22 44 13 37 -9 -7 -19 -9 -22 -4 -3 5 -30 21
-60 36 -103 51 -196 155 -196 220 0 37 -42 79 -98 99 -29 11 -75 40 -109 71
-81 74 -158 124 -206 136 -23 6 -53 16 -67 22 -14 5 -95 14 -180 19 -175 9
-193 6 -282 -53 -60 -39 -188 -78 -259 -78 -21 0 -40 -4 -43 -8 -3 -5 -36 -10
-73 -11 -37 -2 -79 -4 -93 -6 -14 -1 -35 -3 -47 -3 l-23 -2 0 -1750 0 -1750
3200 0 3200 0 0 1290 0 1290 -164 0 c-159 0 -215 8 -245 35 -10 10 -18 10 -40
-1 -19 -10 -72 -14 -201 -14 -149 0 -193 4 -294 25 -121 26 -255 75 -277 101
-7 8 -14 36 -16 62 -5 44 -3 48 25 64 22 13 52 18 109 18 84 0 131 -17 184
-66 32 -30 42 -30 83 1 21 16 46 25 70 25 47 0 171 -18 213 -31 34 -11 82 -66
98 -114 16 -49 39 -43 106 28 79 85 115 96 248 73 50 -9 93 -16 96 -16 3 0 5
74 5 164 l0 163 -67 7 c-101 9 -253 8 -488 -5 -313 -18 -374 -15 -501 26 -58
19 -110 35 -116 35 -5 0 -32 10 -59 22 -33 16 -54 33 -64 54 -15 31 -53 185
-60 239 -26 212 -34 491 -17 560 6 22 13 81 17 130 3 50 10 126 15 170 14 121
18 162 25 260 4 49 8 92 10 96 3 3 9 62 15 130 6 68 15 171 20 229 5 58 12
177 15 265 5 160 14 262 40 495 8 69 17 230 20 358 l6 232 -460 0 -461 0 0
-57 c0 -32 5 -65 10 -73 9 -13 10 -13 10 0 1 8 7 3 16 -12 13 -25 13 -31 -1
-58 -9 -16 -20 -30 -26 -30 -6 0 -8 -4 -5 -9 13 -21 -21 -31 -55 -17 -19 7
-40 11 -46 9 -14 -5 -99 24 -122 41 -10 8 -15 8 -18 -2 -3 -8 -28 1 -80 29
-167 91 -361 150 -553 168 -146 14 -133 15 -215 -14z m1112 -47 c-3 -8 -6 -5
-6 6 -1 11 2 17 5 13 3 -3 4 -12 1 -19z m-1639 -434 c-16 -31 -27 -61 -26 -65
2 -5 18 5 36 22 17 16 32 26 32 20 0 -6 -6 -14 -13 -18 -17 -11 -72 -135 -93
-211 -14 -50 -21 -61 -35 -57 -12 4 -18 -1 -23 -19 -3 -13 -26 -45 -51 -70
l-45 -47 0 59 c0 125 69 280 167 377 37 36 70 65 74 65 4 0 -6 -25 -23 -56z
m112 21 c0 -5 -5 -3 -10 5 -5 8 -10 20 -10 25 0 6 5 3 10 -5 5 -8 10 -19 10
-25z m-15 -35 c-12 -19 -25 -10 -25 16 0 23 1 24 16 10 8 -9 12 -20 9 -26z
m-225 -31 c0 -6 -17 -50 -39 -98 -21 -47 -46 -108 -56 -136 -23 -62 -115 -207
-130 -202 -28 11 15 171 78 290 47 90 147 189 147 146z m-107 -741 c7 -123 29
-243 62 -340 13 -40 23 -73 21 -75 -2 -2 -23 1 -47 6 -55 13 -154 14 -196 2
-18 -5 -35 -6 -38 -1 -11 17 96 338 125 375 4 6 17 40 30 78 12 37 25 65 29
62 5 -2 11 -51 14 -107z m67 -684 c0 -8 -5 -12 -10 -9 -6 4 -8 11 -5 16 9 14
15 11 15 -7z m-90 -57 c7 -26 22 -59 32 -72 17 -22 17 -25 3 -25 -49 0 -115
52 -115 91 0 22 49 74 59 63 5 -5 14 -31 21 -57z m445 43 c3 -5 -1 -10 -9 -10
-9 0 -16 -7 -16 -15 0 -8 4 -15 9 -15 5 0 14 7 21 15 16 19 34 19 26 0 -3 -8
-2 -14 2 -13 19 3 72 -26 72 -39 0 -10 6 -14 19 -10 12 3 22 -1 25 -9 3 -8 20
-14 43 -14 35 -1 37 -2 19 -15 -18 -14 -18 -15 8 -26 25 -12 30 -10 69 28 42
40 77 60 77 44 0 -5 11 -7 24 -6 20 3 25 -2 29 -28 2 -18 0 -35 -6 -38 -5 -4
-7 -11 -3 -17 3 -6 -8 -10 -30 -10 -20 0 -41 -5 -47 -11 -8 -8 -6 -11 7 -11 9
0 15 -4 11 -9 -6 -10 54 -31 90 -31 15 0 17 -3 7 -9 -11 -7 -10 -10 3 -15 9
-3 25 -6 35 -6 13 0 17 -5 13 -20 -4 -16 0 -20 20 -20 31 0 38 -18 36 -86 -2
-47 -14 -82 -33 -96 -6 -4 -4 -13 3 -22 12 -15 8 -20 -12 -17 -4 1 -11 -7 -14
-16 -4 -10 -14 -25 -23 -33 -9 -8 -22 -33 -30 -55 -7 -22 -18 -43 -24 -47 -8
-5 -7 -11 2 -20 16 -16 15 -25 -3 -25 -8 0 -15 4 -15 9 0 5 -5 6 -10 3 -6 -4
-4 -12 5 -21 8 -9 15 -19 15 -24 0 -15 -71 -130 -80 -130 -5 0 -11 -9 -15 -19
-3 -11 -15 -23 -26 -26 -10 -4 -19 -13 -19 -21 0 -8 -4 -14 -10 -14 -5 0 -10
-6 -10 -13 0 -13 -76 -67 -96 -67 -6 0 -24 -16 -38 -35 -15 -19 -38 -38 -51
-41 -14 -3 -25 -10 -25 -15 0 -15 -90 -50 -140 -55 -25 -2 -52 -7 -60 -9 -8
-3 -27 5 -41 18 -35 29 -287 367 -326 437 -69 121 -89 234 -98 540 -5 187 -4
194 12 174 10 -12 26 -36 36 -54 11 -20 23 -30 31 -27 8 3 20 0 26 -8 26 -31
74 -37 167 -20 133 24 153 32 153 61 0 13 5 24 11 24 6 0 9 6 7 12 -6 18 37
49 56 42 8 -3 18 -14 21 -25 9 -27 30 -23 57 10 25 32 33 36 43 21z m553 -61
c-2 -6 -8 -10 -13 -10 -5 0 -11 4 -13 10 -2 6 4 11 13 11 9 0 15 -5 13 -11z
m-1828 -2074 c0 -2 -13 -11 -30 -20 -31 -16 -43 -3 -12 14 18 11 42 14 42 6z
m-184 -396 c19 -22 19 -22 -2 -11 -26 14 -44 61 -43 111 1 31 2 28 13 -21 7
-32 21 -67 32 -79z"/>
<path d="M3148 4243 c7 -3 16 -2 19 1 4 3 -2 6 -13 5 -11 0 -14 -3 -6 -6z"/>
<path d="M2810 3926 c0 -9 -5 -16 -11 -16 -5 0 -7 4 -4 10 4 7 -3 7 -19 0 -14
-5 -26 -7 -26 -3 0 3 -8 -3 -17 -13 -10 -10 -29 -19 -43 -18 -59 1 -67 -23
-19 -57 38 -27 207 -46 242 -27 19 10 19 12 4 23 -9 7 -17 18 -17 25 0 7 -6
10 -14 7 -11 -4 -14 2 -14 21 1 48 -1 54 -18 48 -9 -4 -23 -1 -30 5 -11 9 -14
8 -14 -5z m-105 -56 c3 -5 1 -10 -4 -10 -6 0 -11 5 -11 10 0 6 2 10 4 10 3 0
8 -4 11 -10z"/>
<path d="M2602 3596 c9 -7 42 -19 72 -26 31 -7 53 -16 51 -20 -2 -4 14 -12 35
-19 42 -13 52 -33 23 -50 -15 -9 -13 -10 14 -11 25 0 31 3 26 16 -4 10 1 17
16 21 11 3 18 9 15 14 -3 5 38 6 92 2 78 -5 96 -4 92 7 -8 26 -199 65 -363 74
-75 4 -87 3 -73 -8z m221 -63 c-7 -2 -19 -2 -25 0 -7 3 -2 5 12 5 14 0 19 -2
13 -5z"/>
<path d="M2723 3505 c14 -30 28 -32 44 -6 10 16 9 20 -10 25 -41 11 -46 8 -34
-19z"/>
<path d="M2860 3486 c-24 -14 -24 -14 13 -13 23 1 37 6 37 14 0 17 -18 16 -50
-1z"/>
<path d="M0 4305 c0 -8 9 -15 20 -15 11 0 20 7 20 15 0 8 -9 15 -20 15 -11 0
-20 -7 -20 -15z"/>
<path d="M1832 3285 c0 -11 4 -31 8 -45 6 -20 8 -21 8 -5 0 11 -4 31 -8 45 -6
20 -8 21 -8 5z"/>
<path d="M1887 3143 c-4 -3 -7 -15 -7 -26 0 -10 -13 -80 -29 -155 -86 -398
-112 -555 -94 -573 31 -31 61 16 92 146 14 56 43 276 38 282 -3 2 -7 -13 -11
-34 -20 -117 -70 -333 -77 -333 -11 0 -11 13 0 43 10 27 36 208 46 327 4 41
15 120 25 175 30 166 30 161 17 148z"/>
<path d="M1768 2333 c6 -2 18 -2 25 0 6 3 1 5 -13 5 -14 0 -19 -2 -12 -5z"/>
<path d="M1614 2134 c-3 -16 -10 -45 -14 -64 -4 -19 -11 -47 -14 -62 -4 -16
-2 -28 2 -28 10 0 46 169 38 177 -3 3 -8 -8 -12 -23z"/>
</g>
</svg>
